<mxfile host="app.diagrams.net" modified="2021-05-28T03:26:01.245Z" agent="5.0 (Windows NT 10.0; Win64; x64) AppleWebKit/537.36 (KHTML, like Gecko) Chrome/90.0.4430.212 Safari/537.36" etag="ELCGML2qLq7Yg0ui00WW" version="14.7.2" type="github">
  <diagram id="ArWZ3RzJ1fOOZ56vyojL" name="Page-1">
    <mxGraphModel dx="1038" dy="580" grid="1" gridSize="10" guides="1" tooltips="1" connect="1" arrows="1" fold="1" page="1" pageScale="1" pageWidth="850" pageHeight="1100" math="0" shadow="0">
      <root>
        <mxCell id="0" />
        <mxCell id="1" parent="0" />
        <mxCell id="PuCUHUjYiYKX6IHngZ8--1" value="" style="rounded=1;whiteSpace=wrap;html=1;" vertex="1" parent="1">
          <mxGeometry x="10" y="150" width="640" height="310" as="geometry" />
        </mxCell>
        <mxCell id="PuCUHUjYiYKX6IHngZ8--33" value="" style="group" vertex="1" connectable="0" parent="1">
          <mxGeometry x="340" y="350" width="270" height="60" as="geometry" />
        </mxCell>
        <mxCell id="PuCUHUjYiYKX6IHngZ8--31" value="" style="shape=cube;whiteSpace=wrap;html=1;boundedLbl=1;backgroundOutline=1;darkOpacity=0.05;darkOpacity2=0.1;" vertex="1" parent="PuCUHUjYiYKX6IHngZ8--33">
          <mxGeometry width="270" height="60" as="geometry" />
        </mxCell>
        <mxCell id="PuCUHUjYiYKX6IHngZ8--32" value="Virtual Box" style="text;html=1;strokeColor=none;fillColor=none;align=center;verticalAlign=middle;whiteSpace=wrap;rounded=0;" vertex="1" parent="PuCUHUjYiYKX6IHngZ8--33">
          <mxGeometry x="90" y="30" width="90" height="20" as="geometry" />
        </mxCell>
        <mxCell id="PuCUHUjYiYKX6IHngZ8--2" value="Your Laptop" style="text;html=1;strokeColor=none;fillColor=none;align=center;verticalAlign=middle;whiteSpace=wrap;rounded=0;" vertex="1" parent="1">
          <mxGeometry x="230" y="470" width="140" height="20" as="geometry" />
        </mxCell>
        <mxCell id="PuCUHUjYiYKX6IHngZ8--3" value="" style="ellipse;shape=cloud;whiteSpace=wrap;html=1;" vertex="1" parent="1">
          <mxGeometry x="30" y="20" width="200" height="130" as="geometry" />
        </mxCell>
        <mxCell id="PuCUHUjYiYKX6IHngZ8--4" value="Vagrant cloud" style="text;html=1;strokeColor=none;fillColor=none;align=center;verticalAlign=middle;whiteSpace=wrap;rounded=0;" vertex="1" parent="1">
          <mxGeometry x="70" y="10" width="40" height="20" as="geometry" />
        </mxCell>
        <mxCell id="PuCUHUjYiYKX6IHngZ8--7" value="" style="shape=cube;whiteSpace=wrap;html=1;boundedLbl=1;backgroundOutline=1;darkOpacity=0.05;darkOpacity2=0.1;" vertex="1" parent="1">
          <mxGeometry x="120" y="50" width="50" height="50" as="geometry" />
        </mxCell>
        <mxCell id="PuCUHUjYiYKX6IHngZ8--8" value="" style="shape=cube;whiteSpace=wrap;html=1;boundedLbl=1;backgroundOutline=1;darkOpacity=0.05;darkOpacity2=0.1;" vertex="1" parent="1">
          <mxGeometry x="70" y="60" width="50" height="50" as="geometry" />
        </mxCell>
        <mxCell id="PuCUHUjYiYKX6IHngZ8--13" value="" style="group" vertex="1" connectable="0" parent="1">
          <mxGeometry x="490" y="310" width="60" height="60" as="geometry" />
        </mxCell>
        <mxCell id="PuCUHUjYiYKX6IHngZ8--12" value="OS" style="shape=cube;whiteSpace=wrap;html=1;boundedLbl=1;backgroundOutline=1;darkOpacity=0.05;darkOpacity2=0.1;" vertex="1" parent="PuCUHUjYiYKX6IHngZ8--13">
          <mxGeometry width="60" height="60" as="geometry" />
        </mxCell>
        <mxCell id="PuCUHUjYiYKX6IHngZ8--11" value="VM" style="rounded=0;whiteSpace=wrap;html=1;fillColor=#dae8fc;strokeColor=#6c8ebf;" vertex="1" parent="PuCUHUjYiYKX6IHngZ8--13">
          <mxGeometry x="20" y="50" width="40" height="10" as="geometry" />
        </mxCell>
        <mxCell id="PuCUHUjYiYKX6IHngZ8--18" value="" style="shape=cube;whiteSpace=wrap;html=1;boundedLbl=1;backgroundOutline=1;darkOpacity=0.05;darkOpacity2=0.1;" vertex="1" parent="1">
          <mxGeometry x="110" y="80" width="50" height="50" as="geometry" />
        </mxCell>
        <mxCell id="PuCUHUjYiYKX6IHngZ8--19" value="Vagrant" style="rounded=1;whiteSpace=wrap;html=1;" vertex="1" parent="1">
          <mxGeometry x="39" y="200" width="270" height="60" as="geometry" />
        </mxCell>
        <mxCell id="PuCUHUjYiYKX6IHngZ8--20" value="" style="shape=cylinder3;whiteSpace=wrap;html=1;boundedLbl=1;backgroundOutline=1;size=15;" vertex="1" parent="1">
          <mxGeometry x="179" y="330" width="110" height="110" as="geometry" />
        </mxCell>
        <mxCell id="PuCUHUjYiYKX6IHngZ8--21" value="" style="shape=cube;whiteSpace=wrap;html=1;boundedLbl=1;backgroundOutline=1;darkOpacity=0.05;darkOpacity2=0.1;" vertex="1" parent="1">
          <mxGeometry x="230" y="370" width="50" height="50" as="geometry" />
        </mxCell>
        <mxCell id="PuCUHUjYiYKX6IHngZ8--23" value="" style="html=1;verticalLabelPosition=bottom;align=center;labelBackgroundColor=#ffffff;verticalAlign=top;strokeWidth=2;strokeColor=#0080F0;shadow=0;dashed=0;shape=mxgraph.ios7.icons.folder;" vertex="1" parent="1">
          <mxGeometry x="39" y="330" width="130" height="100" as="geometry" />
        </mxCell>
        <mxCell id="PuCUHUjYiYKX6IHngZ8--22" value="Vagrantfile" style="shape=note;whiteSpace=wrap;html=1;backgroundOutline=1;darkOpacity=0.05;" vertex="1" parent="1">
          <mxGeometry x="89" y="350" width="60" height="70" as="geometry" />
        </mxCell>
        <mxCell id="PuCUHUjYiYKX6IHngZ8--25" value="" style="curved=1;endArrow=classic;html=1;" edge="1" parent="1">
          <mxGeometry width="50" height="50" relative="1" as="geometry">
            <mxPoint x="180" y="100" as="sourcePoint" />
            <mxPoint x="220" y="330" as="targetPoint" />
            <Array as="points">
              <mxPoint x="180" y="100" />
              <mxPoint x="190" y="100" />
            </Array>
          </mxGeometry>
        </mxCell>
        <mxCell id="PuCUHUjYiYKX6IHngZ8--29" value="" style="endArrow=classic;html=1;entryX=0;entryY=0;entryDx=30;entryDy=0;entryPerimeter=0;exitX=0.25;exitY=1;exitDx=0;exitDy=0;" edge="1" parent="1" source="PuCUHUjYiYKX6IHngZ8--19" target="PuCUHUjYiYKX6IHngZ8--22">
          <mxGeometry width="50" height="50" relative="1" as="geometry">
            <mxPoint x="389" y="300" as="sourcePoint" />
            <mxPoint x="439" y="250" as="targetPoint" />
          </mxGeometry>
        </mxCell>
        <mxCell id="PuCUHUjYiYKX6IHngZ8--36" value="" style="shape=cube;whiteSpace=wrap;html=1;boundedLbl=1;backgroundOutline=1;darkOpacity=0.05;darkOpacity2=0.1;" vertex="1" parent="1">
          <mxGeometry x="190" y="380" width="50" height="50" as="geometry" />
        </mxCell>
        <mxCell id="PuCUHUjYiYKX6IHngZ8--37" value="" style="shape=cube;whiteSpace=wrap;html=1;boundedLbl=1;backgroundOutline=1;darkOpacity=0.05;darkOpacity2=0.1;" vertex="1" parent="1">
          <mxGeometry x="209" y="360" width="50" height="50" as="geometry" />
        </mxCell>
        <mxCell id="PuCUHUjYiYKX6IHngZ8--28" value="" style="shape=cube;whiteSpace=wrap;html=1;boundedLbl=1;backgroundOutline=1;darkOpacity=0.05;darkOpacity2=0.1;" vertex="1" parent="1">
          <mxGeometry x="425" y="310" width="55" height="60" as="geometry" />
        </mxCell>
        <mxCell id="PuCUHUjYiYKX6IHngZ8--39" value="VM" style="rounded=0;whiteSpace=wrap;html=1;fillColor=#dae8fc;strokeColor=#6c8ebf;" vertex="1" parent="1">
          <mxGeometry x="448" y="360" width="30" height="10" as="geometry" />
        </mxCell>
        <mxCell id="PuCUHUjYiYKX6IHngZ8--38" value="" style="curved=1;endArrow=classic;html=1;exitX=0;exitY=0;exitDx=45;exitDy=15;exitPerimeter=0;entryX=0;entryY=0.75;entryDx=0;entryDy=0;" edge="1" parent="1" source="PuCUHUjYiYKX6IHngZ8--22" target="PuCUHUjYiYKX6IHngZ8--39">
          <mxGeometry width="50" height="50" relative="1" as="geometry">
            <mxPoint x="340" y="230" as="sourcePoint" />
            <mxPoint x="390" y="180" as="targetPoint" />
            <Array as="points">
              <mxPoint x="200" y="290" />
              <mxPoint x="250" y="270" />
            </Array>
          </mxGeometry>
        </mxCell>
        <mxCell id="PuCUHUjYiYKX6IHngZ8--27" value="" style="curved=1;endArrow=classic;html=1;" edge="1" parent="1" source="PuCUHUjYiYKX6IHngZ8--20">
          <mxGeometry width="50" height="50" relative="1" as="geometry">
            <mxPoint x="430" y="300" as="sourcePoint" />
            <mxPoint x="440" y="320" as="targetPoint" />
            <Array as="points">
              <mxPoint x="290" y="210" />
              <mxPoint x="440" y="260" />
            </Array>
          </mxGeometry>
        </mxCell>
        <mxCell id="PuCUHUjYiYKX6IHngZ8--40" value="&lt;b&gt;Vagrant init&lt;/b&gt; command" style="text;html=1;strokeColor=none;fillColor=none;align=center;verticalAlign=middle;whiteSpace=wrap;rounded=0;" vertex="1" parent="1">
          <mxGeometry x="20" y="270" width="100" height="30" as="geometry" />
        </mxCell>
        <mxCell id="PuCUHUjYiYKX6IHngZ8--41" value="1" style="text;html=1;strokeColor=none;fillColor=none;align=center;verticalAlign=middle;whiteSpace=wrap;rounded=0;fontSize=18;" vertex="1" parent="1">
          <mxGeometry x="94" y="290" width="20" height="20" as="geometry" />
        </mxCell>
      </root>
    </mxGraphModel>
  </diagram>
</mxfile>
